<svg width="36" height="36" viewBox="0 0 36 36" fill="none" xmlns="http://www.w3.org/2000/svg">
<circle cx="18" cy="18" r="18" fill="url(#paint0_linear_807_124)"/>
<path d="M18.0383 27V9H19.1519V27H18.0383ZM20.992 14.9414C20.9377 14.3742 20.7045 13.9336 20.2926 13.6195C19.8807 13.3055 19.3216 13.1484 18.6154 13.1484C18.1356 13.1484 17.7305 13.2188 17.4 13.3594C17.0695 13.4953 16.816 13.6852 16.6395 13.9289C16.4675 14.1727 16.3815 14.4492 16.3815 14.7586C16.3724 15.0164 16.4245 15.2414 16.5377 15.4336C16.6553 15.6258 16.816 15.7922 17.0198 15.9328C17.2235 16.0688 17.4588 16.1883 17.7259 16.2914C17.993 16.3898 18.2782 16.4742 18.5815 16.5445L19.8309 16.8539C20.4374 16.9945 20.9942 17.182 21.5012 17.4164C22.0082 17.6508 22.4473 17.9391 22.8185 18.2812C23.1897 18.6234 23.4772 19.0266 23.6809 19.4906C23.8891 19.9547 23.9955 20.4867 24 21.0867C23.9955 21.968 23.7782 22.732 23.3481 23.3789C22.9226 24.0211 22.307 24.5203 21.5012 24.8766C20.7 25.2281 19.7335 25.4039 18.6019 25.4039C17.4792 25.4039 16.5014 25.2258 15.6685 24.8695C14.8401 24.5133 14.1928 23.9859 13.7265 23.2875C13.2648 22.5844 13.0226 21.7148 13 20.6789H15.8451C15.8767 21.1617 16.0103 21.5648 16.2457 21.8883C16.4856 22.207 16.8047 22.4484 17.2031 22.6125C17.606 22.7719 18.0609 22.8516 18.5679 22.8516C19.0658 22.8516 19.4981 22.7766 19.8648 22.6266C20.236 22.4766 20.5235 22.268 20.7272 22.0008C20.9309 21.7336 21.0327 21.4266 21.0327 21.0797C21.0327 20.7562 20.9399 20.4844 20.7543 20.2641C20.5733 20.0437 20.3062 19.8562 19.9531 19.7016C19.6045 19.5469 19.1767 19.4063 18.6698 19.2797L17.1556 18.8859C15.9831 18.5906 15.0574 18.1289 14.3784 17.5008C13.6994 16.8727 13.3621 16.0266 13.3667 14.9625C13.3621 14.0906 13.5862 13.3289 14.0389 12.6773C14.4961 12.0258 15.123 11.5172 15.9198 11.1516C16.7165 10.7859 17.6218 10.6031 18.6358 10.6031C19.6679 10.6031 20.5687 10.7859 21.3383 11.1516C22.1123 11.5172 22.7144 12.0258 23.1444 12.6773C23.5745 13.3289 23.7963 14.0836 23.8099 14.9414H20.992Z" fill="white"/>
<defs>
<linearGradient id="paint0_linear_807_124" x1="0" y1="18" x2="36" y2="18" gradientUnits="userSpaceOnUse">
<stop stop-color="#6DDD25"/>
<stop offset="1" stop-color="#0AB45A"/>
</linearGradient>
</defs>
</svg>
